Coordinates
version=1
nRows=34
nColumns=38
inDegrees=no

Units are S.I. units (second, meters, Newtons, ...)
If the header above contains a line with 'inDegrees', this indicates whether rotational values are in degrees (yes) or radians (no).

endheader
time	pelvis_tilt	pelvis_list	pelvis_rotation	pelvis_tx	pelvis_ty	pelvis_tz	hip_flexion_r	hip_adduction_r	hip_rotation_r	knee_angle_r	ankle_angle_r	subtalar_angle_r	mtp_angle_r	hip_flexion_l	hip_adduction_l	hip_rotation_l	knee_angle_l	ankle_angle_l	subtalar_angle_l	mtp_angle_l	lumbar_extension	lumbar_bending	lumbar_rotation	arm_flex_r	arm_add_r	arm_rot_r	elbow_flex_r	pro_sup_r	wrist_flex_r	wrist_dev_r	arm_flex_l	arm_add_l	arm_rot_l	elbow_flex_l	pro_sup_l	wrist_flex_l	wrist_dev_l
1.03	2.87455	1.34485	-1.20307	0.567344	0.75487	0.954122	-0.117466	0.0497378	-0.21405	0.295577	-0.13484	0	0	0.0217152	-0.243157	-0.169995	1.38599	-0.105429	0	0	-0.336324	0.04432	-0.199003	0.129072	-0.507507	1.19689	0.735962	0.375375	0	0	-0.274913	-0.36743	-0.00293905	1.04298	1.5708	0	0
1.04	2.88529	1.29032	-1.20816	0.566362	0.764378	0.962066	-0.213391	0.0805278	-0.250818	0.29667	-0.0953534	0	0	-0.0151897	-0.26265	-0.175277	1.36321	-0.110211	0	0	-0.395532	0.0654059	-0.196468	0.139939	-0.509977	1.19889	0.737728	0.374046	0	0	-0.269324	-0.364678	0.00151474	1.03527	1.5708	0	0
1.05	2.90924	1.28632	-1.24011	0.56747	0.774191	0.963151	-0.234672	0.0766652	-0.242398	0.280628	-0.0984393	0	0	-7.65414e-05	-0.256643	-0.185135	1.35509	-0.10621	0	0	-0.40369	0.0572283	-0.18928	0.141404	-0.513157	1.19694	0.746679	0.371753	0	0	-0.276393	-0.365359	0.000319302	1.03665	1.5708	0	0
1.06	2.92899	1.28132	-1.26656	0.568353	0.784163	0.964266	-0.258444	0.0739129	-0.237834	0.269605	-0.0990212	0	0	0.0130839	-0.252758	-0.196766	1.34146	-0.102325	0	0	-0.411235	0.0505705	-0.182697	0.142316	-0.515473	1.19516	0.753159	0.370169	0	0	-0.28255	-0.366139	0.000698313	1.03621	1.5708	0	0
1.07	2.94674	1.27361	-1.29038	0.569114	0.794268	0.965459	-0.287081	0.0721308	-0.237101	0.261488	-0.0945428	0	0	0.0215695	-0.251204	-0.212113	1.32217	-0.0997826	0	0	-0.42104	0.045086	-0.176574	0.143003	-0.518342	1.19276	0.76026	0.368567	0	0	-0.289049	-0.366874	0.000588709	1.03659	1.57058	0	0
1.08	2.96256	1.26776	-1.31471	0.57012	0.804267	0.966086	-0.312338	0.0697065	-0.233792	0.241359	-0.0989649	0	0	0.0304896	-0.251216	-0.234234	1.29981	-0.0989255	0	0	-0.429337	0.0381692	-0.168441	0.143366	-0.522545	1.18916	0.76973	0.366635	0	0	-0.296253	-0.367681	-0.000991669	1.03917	1.56994	0	0
1.09	2.97498	1.2605	-1.33549	0.571011	0.814367	0.966602	-0.340784	0.0683027	-0.231824	0.222729	-0.103244	0	0	0.0362081	-0.256252	-0.265891	1.27397	-0.101093	0	0	-0.438269	0.032447	-0.160438	0.143614	-0.52744	1.18558	0.7797	0.365146	0	0	-0.303673	-0.367872	-0.0034887	1.04206	1.56921	0	0
1.1	2.98564	1.24918	-1.35402	0.571694	0.824537	0.967311	-0.375191	0.0677496	-0.232076	0.209414	-0.100949	0	0	0.0347175	-0.26543	-0.3063	1.24358	-0.106672	0	0	-0.451276	0.0281647	-0.152974	0.144238	-0.533407	1.18177	0.790966	0.36365	0	0	-0.311469	-0.367651	-0.00718316	1.0461	1.56775	0	0
1.11	2.996	1.23917	-1.37309	0.572412	0.834534	0.967765	-0.404334	0.0656709	-0.228601	0.196284	-0.101439	0	0	0.0321961	-0.27127	-0.345119	1.20839	-0.112659	0	0	-0.463707	0.0229641	-0.144816	0.145307	-0.539392	1.17807	0.801983	0.362178	0	0	-0.318513	-0.367461	-0.0112763	1.0502	1.56515	0	0
1.12	3.00579	1.23222	-1.391	0.573087	0.844405	0.967841	-0.426565	0.0623342	-0.224433	0.184644	-0.105584	0	0	0.0317076	-0.272918	-0.379311	1.16865	-0.118481	0	0	-0.473225	0.0171452	-0.137094	0.146468	-0.54432	1.17478	0.810901	0.361268	0	0	-0.324585	-0.367697	-0.014508	1.05316	1.56267	0	0
1.13	3.0144	1.22527	-1.40543	0.573569	0.854316	0.967846	-0.450688	0.0598028	-0.224009	0.1751	-0.106584	0	0	0.0299031	-0.272568	-0.410118	1.12343	-0.126024	0	0	-0.482402	0.0121785	-0.13103	0.147568	-0.548128	1.17196	0.817644	0.361198	0	0	-0.330127	-0.368224	-0.0174276	1.05544	1.56064	0	0
1.14	3.02119	1.22137	-1.41824	0.57401	0.864055	0.967408	-0.467609	0.0564328	-0.221866	0.167488	-0.109095	0	0	0.0302764	-0.27005	-0.438911	1.07433	-0.135628	0	0	-0.488882	0.00708467	-0.124982	0.14872	-0.551197	1.16869	0.823057	0.360939	0	0	-0.334929	-0.368553	-0.0207233	1.05731	1.55692	0	0
1.15	3.02526	1.21728	-1.42706	0.574179	0.873765	0.966924	-0.486458	0.0543888	-0.219463	0.161389	-0.108112	0	0	0.0292212	-0.266546	-0.46661	1.0208	-0.146718	0	0	-0.495525	0.00367363	-0.119749	0.149699	-0.553967	1.16475	0.827503	0.360169	0	0	-0.33866	-0.368106	-0.0240121	1.05818	1.55249	0	0
1.16	3.02738	1.21286	-1.43241	0.574152	0.883494	0.966351	-0.507133	0.0533097	-0.220151	0.157561	-0.102888	0	0	0.0266145	-0.262113	-0.493246	0.963969	-0.157683	0	0	-0.5025	0.00158227	-0.115414	0.150709	-0.556561	1.16138	0.831536	0.359592	0	0	-0.341832	-0.367739	-0.0271008	1.05872	1.54842	0	0
1.17	3.02841	1.21239	-1.4363	0.574194	0.893203	0.965227	-0.518806	0.0511623	-0.224362	0.157758	-0.0994269	0	0	0.0279361	-0.255632	-0.516701	0.906579	-0.165044	0	0	-0.505293	-0.000941323	-0.111507	0.152164	-0.558133	1.15966	0.833987	0.359789	0	0	-0.344972	-0.367879	-0.0300569	1.05864	1.54539	0	0
1.18	3.02816	1.21481	-1.43753	0.574008	0.902933	0.963802	-0.523599	0.0499053	-0.225929	0.159567	-0.0944285	0	0	0.0321741	-0.247186	-0.535872	0.848483	-0.16947	0	0	-0.505143	-0.00279646	-0.108873	0.153354	-0.558569	1.1579	0.834444	0.359585	0	0	-0.347537	-0.367799	-0.0327597	1.05735	1.543	0	0
1.19	3.02793	1.2206	-1.43863	0.573663	0.912505	0.962187	-0.523599	0.0481642	-0.220866	0.16114	-0.0865491	0	0	0.0390442	-0.235498	-0.55061	0.785616	-0.179699	0	0	-0.501738	-0.00503983	-0.106364	0.153479	-0.556322	1.15301	0.83047	0.360642	0	0	-0.348176	-0.366986	-0.035198	1.05345	1.53794	0	0
1.2	3.02354	1.22933	-1.43363	0.572998	0.922063	0.96027	-0.523599	0.0494778	-0.209201	0.156644	-0.0826354	0	0	0.0496707	-0.222701	-0.557043	0.721365	-0.18139	0	0	-0.495167	-0.00520745	-0.105338	0.154216	-0.553454	1.14965	0.824646	0.363721	0	0	-0.34787	-0.365871	-0.0370932	1.04767	1.53482	0	0
1.21	3.01834	1.23867	-1.42644	0.572432	0.931723	0.958017	-0.523599	0.0493132	-0.215516	0.166398	-0.0703934	0	0	0.0603351	-0.2089	-0.556114	0.654922	-0.181182	0	0	-0.487645	-0.00525628	-0.105679	0.154233	-0.550222	1.14576	0.819767	0.366005	0	0	-0.348863	-0.366067	-0.0394136	1.04355	1.53323	0	0
1.22	3.00761	1.24916	-1.41267	0.571675	0.941277	0.955754	-0.523599	0.0512579	-0.22154	0.1769	-0.056667	0	0	0.0715034	-0.19434	-0.544953	0.585143	-0.180508	0	0	-0.479017	-0.00333213	-0.106491	0.155174	-0.546062	1.14304	0.812644	0.368768	0	0	-0.348579	-0.365881	-0.0413799	1.03781	1.53356	0	0
1.23	2.99635	1.26059	-1.39789	0.570707	0.950781	0.953362	-0.521686	0.0527326	-0.224385	0.185884	-0.0506103	0	0	0.0816333	-0.177364	-0.525465	0.512792	-0.177822	0	0	-0.469718	-0.0012193	-0.107684	0.156459	-0.542361	1.14157	0.806075	0.369838	0	0	-0.3476	-0.36535	-0.0432058	1.03163	1.5337	0	0
1.24	2.98404	1.27402	-1.38156	0.569517	0.96051	0.950909	-0.51203	0.0534378	-0.228904	0.19813	-0.0433653	0	0	0.0907906	-0.158144	-0.498344	0.438141	-0.173582	0	0	-0.457713	0.000731973	-0.109528	0.1571	-0.537372	1.14029	0.797018	0.370713	0	0	-0.346171	-0.364028	-0.0450183	1.02318	1.53407	0	0
1.25	2.96215	1.28008	-1.35494	0.567785	0.970166	0.949613	-0.51372	0.0576939	-0.233838	0.201289	-0.0442018	0	0	0.0889266	-0.142024	-0.466995	0.360835	-0.171713	0	0	-0.453203	0.00759829	-0.110934	0.160171	-0.532914	1.14116	0.78609	0.372773	0	0	-0.341664	-0.360701	-0.0462868	1.01125	1.53606	0	0
1.26	2.95075	1.28986	-1.33977	0.566405	0.980458	0.947473	-0.51067	0.0577665	-0.238179	0.210623	-0.0407053	0	0	0.0897167	-0.125296	-0.438349	0.292599	-0.170405	0	0	-0.443675	0.00895632	-0.113107	0.159833	-0.528271	1.13956	0.777567	0.373272	0	0	-0.341394	-0.359134	-0.048823	1.0027	1.5378	0	0
1.27	2.93753	1.2998	-1.32423	0.565261	0.990956	0.945339	-0.506702	0.0577754	-0.23871	0.22073	-0.0368533	0	0	0.0906706	-0.112543	-0.410416	0.233275	-0.17344	0	0	-0.433287	0.00949099	-0.113766	0.15818	-0.523015	1.13656	0.768678	0.372855	0	0	-0.341359	-0.358099	-0.0508822	0.99399	1.54078	0	0
1.28	2.92617	1.30803	-1.3115	0.564311	1.00173	0.943345	-0.502716	0.0563354	-0.241587	0.235572	-0.0328507	0	0	0.0903111	-0.103537	-0.385198	0.187125	-0.180238	0	0	-0.424096	0.00887191	-0.113614	0.15653	-0.518111	1.13524	0.760755	0.37377	0	0	-0.342309	-0.358116	-0.0525104	0.986353	1.54379	0	0
1.29	2.91782	1.31307	-1.30298	0.563522	1.01277	0.941643	-0.502655	0.0543949	-0.242171	0.249219	-0.0310581	0	0	0.0898644	-0.0993392	-0.369815	0.164187	-0.186601	0	0	-0.417943	0.00734373	-0.112489	0.154523	-0.513957	1.13375	0.754826	0.374013	0	0	-0.344233	-0.359016	-0.0544025	0.980765	1.54412	0	0
1.3	2.91404	1.31445	-1.30005	0.562819	1.02402	0.940264	-0.505695	0.0512568	-0.244085	0.264711	-0.031269	0	0	0.0899531	-0.0990139	-0.36607	0.167829	-0.190672	0	0	-0.415525	0.00495522	-0.110508	0.152059	-0.51082	1.13181	0.751329	0.373337	0	0	-0.347234	-0.360616	-0.0565764	0.977221	1.5437	0	0
1.31	2.91521	1.31295	-1.30287	0.56205	1.03547	0.939163	-0.511784	0.0471754	-0.244557	0.280641	-0.0330955	0	0	0.0902343	-0.101014	-0.372159	0.194379	-0.191314	0	0	-0.416132	0.00180075	-0.107957	0.148989	-0.509067	1.12869	0.750078	0.37147	0	0	-0.351106	-0.362477	-0.0588308	0.975084	1.54386	0	0
1.32	2.92049	1.3092	-1.31024	0.561154	1.04724	0.93831	-0.520881	0.0424302	-0.243234	0.295753	-0.0372719	0	0	0.0892299	-0.104621	-0.386614	0.23683	-0.186223	0	0	-0.418995	-0.00176969	-0.10476	0.145461	-0.509199	1.1262	0.750984	0.370482	0	0	-0.355459	-0.364263	-0.0612168	0.974015	1.54408	0	0
1.33	2.92622	1.30583	-1.31882	0.560143	1.05936	0.937577	-0.523599	0.0363226	-0.242156	0.314216	-0.0438094	0	0	0.0870819	-0.108231	-0.40371	0.281573	-0.178198	0	0	-0.420957	-0.0055179	-0.1006	0.141012	-0.5099	1.12422	0.751769	0.370293	0	0	-0.359439	-0.365521	-0.0634355	0.972359	1.54284	0	0
1.34	2.93305	1.30328	-1.32873	0.558973	1.07176	0.936996	-0.523599	0.0295495	-0.238455	0.333206	-0.0528061	0	0	0.0823166	-0.108643	-0.416072	0.314233	-0.173421	0	0	-0.42155	-0.00969215	-0.0959529	0.135089	-0.51036	1.12073	0.751403	0.369891	0	0	-0.362787	-0.36649	-0.0648874	0.968983	1.54218	0	0
1.35	2.94335	1.30202	-1.34087	0.55757	1.08432	0.936562	-0.523599	0.0222985	-0.232575	0.352234	-0.0634465	0	0	0.0753087	-0.103373	-0.41848	0.327269	-0.181477	0	0	-0.420618	-0.0146849	-0.0925197	0.128281	-0.510019	1.11615	0.749419	0.369031	0	0	-0.365566	-0.367231	-0.0665095	0.964363	1.54208	0	0
1.36	2.95711	1.30147	-1.35465	0.555984	1.09698	0.936324	-0.523599	0.0141359	-0.22929	0.375744	-0.0766535	0	0	0.0672407	-0.0952376	-0.417992	0.329107	-0.201711	0	0	-0.418793	-0.0202782	-0.0908209	0.121352	-0.50897	1.11166	0.74599	0.369282	0	0	-0.367982	-0.368118	-0.068332	0.959095	1.54201	0	0
